<?xml version="1.0" encoding="UTF-8"?>
<svg id="Capa_2" data-name="Capa 2" xmlns="http://www.w3.org/2000/svg" viewBox="0 0 674.04 547.38">
  <g id="_Ñëîé_1" data-name="Ñëîé 1">
    <g>
      <path d="m342.15,217.09c.41,1.9.82,4.63.73,7.92-.14,5.01-1.37,8.82-2.2,10.89v9.9c.99-1.24,2.55-3.5,3.66-6.93,1.98-6.13,1.14-11.76.73-13.86-.71-3.66-2-6.32-2.93-7.92Z"/>
      <path d="m527.32,177.87c-2.9-9.77-8.24-16.31-11.4-19.63,1.03-.11,2.92-.17,5.07.63,2.82,1.05,4.43,2.96,5.07,3.8-.61-4.59-1.71-10.71-3.8-17.73-1.74-5.84-4.7-15.53-11.4-25.96-7.42-11.57-16.51-19.48-24.06-24.7,1.93-1.67,4.76-4.55,6.97-8.87,3.11-6.1,3.28-11.76,3.17-14.56-.24,1.07-.95,3.56-3.17,5.7-3.28,3.16-7.37,3.18-8.23,3.17,1.04-2.89,2.62-6.42,5.07-10.13,3.82-5.79,8.2-9.65,11.4-12.03-.92-.49-2.45-1.14-4.43-1.27-3.48-.23-6.06,1.3-6.97,1.9,3.07-3.96,7.4-10.54,10.13-19.63,2.3-7.66,2.66-14.37,2.53-19-.39,1.28-1.13,3.13-2.53,5.07-1.32,1.82-2.75,3.04-3.8,3.8.43-2.96,1.04-6.14,1.9-9.5,1.87-7.27,4.44-13.42,6.97-18.37-3.78-.71-8.69-.96-13.93.63-18.45,5.6-23.21,28.63-23.43,29.76-.51-1.38-1-3.08-1.27-5.07-.54-4,.05-7.34.63-9.5-2.61,3.07-5.64,7.27-8.23,12.67-4.1,8.53-5.33,16.36-5.7,21.53-1.27-.95-3.06-2.57-4.43-5.07-3.06-5.57-1.67-11.22-1.27-12.67-2.1,3.47-4.79,8.83-6.33,15.83-1.75,7.98-1.27,14.74-.63,19-1.78-2.1-4.27-4.61-7.6-6.97-5.3-3.75-10.46-5.48-13.93-6.33.64-.91,2.44-3.2,5.7-4.43,2.78-1.05,5.21-.81,6.33-.63-1.84-1.84-4.34-3.92-7.6-5.7-8.61-4.69-17.08-4.25-20.9-3.8.62-.75,2.06-2.26,4.43-3.17,2.19-.83,4.1-.74,5.07-.63-2.13-1.07-5.4-2.33-9.5-2.53-9.8-.49-16.69,5.44-18.36,6.97-.14-.19-1.02-1.48-.63-3.17.38-1.65,1.69-2.41,1.9-2.53-1.77-.21-3.92-.28-6.33,0-5.53.65-9.66,2.88-12.03,4.43-10.13-.21-20.26-.41-30.4-.62h0c-.11-.01-.21,0-.32,0-.11,0-.21,0-.32,0h0c-10.13.22-20.26.43-30.4.63-2.37-1.56-6.5-3.78-12.03-4.43-2.41-.28-4.57-.21-6.33,0,.21.12,1.52.88,1.9,2.53.39,1.69-.5,2.97-.63,3.17-1.68-1.53-8.57-7.45-18.36-6.97-4.1.2-7.36,1.46-9.5,2.53.96-.11,2.88-.2,5.07.63,2.37.9,3.81,2.42,4.43,3.17-3.82-.45-12.29-.89-20.9,3.8-3.26,1.78-5.76,3.86-7.6,5.7,1.12-.18,3.55-.42,6.33.63,3.26,1.24,5.05,3.52,5.7,4.43-3.47.85-8.63,2.59-13.93,6.33-3.33,2.35-5.82,4.86-7.6,6.97.64-4.25,1.12-11.02-.63-19-1.54-7-4.23-12.36-6.33-15.83.4,1.45,1.79,7.1-1.27,12.67-1.37,2.49-3.16,4.11-4.43,5.07-.37-5.17-1.6-13-5.7-21.53-2.59-5.4-5.62-9.59-8.23-12.67.58,2.16,1.17,5.5.63,9.5-.27,1.99-.76,3.69-1.27,5.07-.22-1.13-4.98-24.16-23.43-29.76-5.24-1.59-10.15-1.34-13.93-.63,2.52,4.94,5.09,11.09,6.97,18.37.86,3.36,1.47,6.54,1.9,9.5-1.05-.76-2.48-1.98-3.8-3.8-1.41-1.93-2.14-3.79-2.53-5.07-.12,4.63.23,11.34,2.53,19,2.73,9.09,7.06,15.67,10.13,19.63-.91-.6-3.48-2.13-6.97-1.9-1.98.13-3.51.78-4.43,1.27,3.2,2.38,7.58,6.24,11.4,12.03,2.45,3.71,4.03,7.24,5.07,10.13-.86.02-4.96,0-8.23-3.17-2.22-2.14-2.93-4.63-3.17-5.7-.11,2.8.06,8.47,3.17,14.56,2.2,4.32,5.03,7.2,6.97,8.87-7.55,5.21-16.64,13.13-24.06,24.7-6.7,10.44-9.66,20.12-11.4,25.96-2.09,7.02-3.19,13.15-3.8,17.73.63-.84,2.25-2.75,5.07-3.8,2.15-.8,4.04-.74,5.07-.63-3.15,3.32-8.5,9.86-11.4,19.63-1.98,6.66-2.13,12.5-1.9,16.46,2.53-2.32,5.07-4.64,7.6-6.97-1.97,2.82-5.54,8.77-6.33,17.1-.54,5.67.41,10.34,1.27,13.3,1.48-1.48,2.96-2.96,4.43-4.43-1.08,2.64-2.4,6.8-2.53,12.03-.17,6.96,1.85,12.35,3.17,15.2,1.06-1.27,2.11-2.53,3.17-3.8.81,4.03,1.67,11.23-.63,19.63-1.34,4.86-3.34,8.69-5.07,11.4.73-.08,1.6-.26,2.53-.63,2.89-1.15,4.44-3.4,5.07-4.43-1.8,3.11-6.14,11.57-4.43,22.16.63,3.91,1.92,7.12,3.17,9.5,1.48-1.06,2.96-2.11,4.43-3.17-.75,1.27-2.12,4.03-1.9,7.6.45,7.23,7.02,11.07,7.6,11.4,1.48-1.27,2.96-2.53,4.43-3.8-.54,1.77-1.07,4.45-.63,7.6,1.12,8.04,7.61,12.47,8.87,13.3,1.9-1.48,3.8-2.96,5.7-4.43-.58,1.93-1.06,4.57-.63,7.6,1.37,9.74,10.84,14.61,12.03,15.2,1.9-1.9,3.8-3.8,5.7-5.7-.42,2.17-.64,5.03,0,8.23,2.1,10.44,11.62,15.59,13.3,16.46,1.48-2.53,2.96-5.07,4.43-7.6-.53,3.07-.36,5.64,0,7.6,2.32,12.77,15.82,18.81,17.73,19.63,1.48-2.74,2.96-5.49,4.43-8.23,0,2.68.38,6.26,1.9,10.13,4.18,10.67,13.81,15.29,16.47,16.46,1.48-3.38,2.95-6.75,4.43-10.13-.31,3.16.11,5.72.63,7.6,3.4,12.13,17.25,16.57,19,17.1.84-3.38,1.69-6.75,2.53-10.13.49,2.82,2.21,10.48,8.87,17.1,5.56,5.53,11.72,7.51,14.57,8.23.21-3.38.42-6.75.63-10.13.48,2.03,2.46,9.24,9.5,14.56,6.96,5.27,14.37,5.3,16.78,5.19,2.41.11,9.82.09,16.78-5.19,7.04-5.33,9.01-12.53,9.5-14.56.21,3.38.42,6.75.63,10.13,2.84-.72,9-2.7,14.56-8.23,6.66-6.62,8.37-14.28,8.87-17.1.84,3.38,1.69,6.75,2.53,10.13,1.75-.53,15.6-4.97,19-17.1.53-1.88.94-4.44.63-7.6,1.48,3.38,2.96,6.75,4.43,10.13,2.66-1.17,12.28-5.79,16.46-16.46,1.52-3.87,1.89-7.45,1.9-10.13,1.48,2.74,2.96,5.49,4.43,8.23,1.91-.82,15.41-6.87,17.73-19.63.36-1.96.53-4.53,0-7.6,1.48,2.53,2.95,5.07,4.43,7.6,1.68-.87,11.2-6.03,13.3-16.46.64-3.2.42-6.06,0-8.23,1.9,1.9,3.8,3.8,5.7,5.7,1.2-.59,10.66-5.46,12.03-15.2.43-3.03-.05-5.67-.63-7.6,1.9,1.48,3.8,2.96,5.7,4.43,1.26-.82,7.75-5.26,8.87-13.3.44-3.15-.09-5.83-.63-7.6,1.48,1.27,2.96,2.53,4.43,3.8.58-.33,7.15-4.16,7.6-11.4.22-3.57-1.15-6.33-1.9-7.6,1.48,1.06,2.96,2.11,4.43,3.17,1.24-2.38,2.54-5.59,3.17-9.5,1.71-10.59-2.63-19.06-4.43-22.16.62,1.03,2.18,3.28,5.07,4.43.93.37,1.8.55,2.53.63-1.73-2.71-3.73-6.54-5.07-11.4-2.31-8.4-1.44-15.6-.63-19.63,1.06,1.27,2.11,2.53,3.17,3.8,1.32-2.85,3.34-8.24,3.17-15.2-.13-5.23-1.45-9.4-2.53-12.03,1.48,1.48,2.96,2.95,4.43,4.43.86-2.96,1.81-7.62,1.27-13.3-.79-8.33-4.37-14.28-6.33-17.1,2.53,2.32,5.07,4.64,7.6,6.97.23-3.97.08-9.81-1.9-16.46Zm-87.39-91.82c2.87-2.1,5.67-3.76,8.23-5.07-1.56-5.08-1.9-9.54-1.9-12.66,0-5.32.98-9.68,1.9-12.67.67,2.38,1.66,5.2,3.17,8.23,1.24,2.48,2.56,4.59,3.8,6.33.3-3.01,1.21-8.27,4.43-13.93,3.15-5.54,7.09-8.97,9.5-10.77,4.29-3.43,10.15-8.96,15.2-17.1,3.49-5.63,5.63-10.95,6.97-15.2.62,14-3.36,22.17-5.7,25.96-3.03,4.91-9.32,12.24-10.77,13.93-2.31,2.69-4.3,4.85-5.7,6.33,1.85-.08,4.84.02,8.23,1.27,2.53.93,4.43,2.17,5.7,3.17-3.85,1.15-9.71,3.33-15.83,7.6-10.52,7.34-9.38,12.21-19,17.1-5.49,2.79-9.65,3.13-17.1,8.23-2.51,1.72-4.44,3.32-5.7,4.43,3-4.45,7.65-10.13,14.57-15.2Zm12.03,91.82c4.24,3.03,4.42,8.22,4.43,8.87-.59-.66-2.52-2.65-5.7-3.17-4.52-.73-7.8,2.14-8.23,2.53,1.1.18,2.82.63,4.43,1.9,4.17,3.26,3.84,8.89,3.8,9.5-.42-.6-2.69-3.73-6.97-4.43-3.5-.58-6.18.82-6.97,1.27,1.01.86,2.2,2.1,3.17,3.8,2.93,5.13,1.67,10.52,1.27,12.03-.19-1.04-1.11-5.29-5.07-8.23-2.81-2.09-5.71-2.45-6.97-2.53.95,1.1,2.52,3.24,3.17,6.33,1.22,5.87-1.89,10.49-2.53,11.4.09-.91.41-5.09-2.53-8.87-2.55-3.27-5.95-4.2-6.97-4.43.38,1.52.69,3.45.63,5.7-.12,5-1.99,8.79-3.17,10.76-.07-2.17-.36-5.02-1.27-8.23-.89-3.17-2.1-5.72-3.17-7.6-1.07,2.41-2.13,4.94-3.17,7.6-1.19,3.06-2.24,6.02-3.17,8.87-.64-2.22-1.26-5.25-1.27-8.87,0-2.44.28-4.58.63-6.33-1.86,1.31-4.11,3.16-6.33,5.7-2.84,3.25-4.61,6.46-5.7,8.87-.07-2.02.03-4.63.63-7.6.64-3.14,1.63-5.71,2.53-7.6-1.61.75-3.66,1.93-5.7,3.8-3.99,3.67-5.65,7.9-6.33,10.13-.27-2.11-.5-6.19,1.27-10.77,1.11-2.87,2.63-4.97,3.8-6.33-2.03.74-5.56,2.35-8.87,5.7-2.78,2.81-4.28,5.72-5.07,7.6-.19-1.88-.29-5.45,1.27-9.5,1.29-3.37,3.19-5.67,4.43-6.97-2.36,1.05-6.48,3.27-10.13,7.6-2.81,3.33-4.28,6.64-5.07,8.87-.55-3.03-1.71-11.7,3.17-20.26,1.98-3.48,4.39-5.95,6.33-7.6,2.23,2.64,6.12,6.57,12.03,9.5,13.56,6.73,26.65,2.71,29.13,1.9,2.12-.7,15.83-5.44,22.8-19.63,1.59-3.25,5.79-12.11,3.17-22.8-1.2-4.89-3.42-8.52-5.07-10.77,4.85,1.44,8.36,4.88,8.87,8.87.12.93.15,2.5-.63,4.43.37-.33,2.52-2.16,5.7-1.9,2.94.24,4.7,2.12,5.07,2.53-.94-.03-2.97.05-5.07,1.27-3.19,1.84-4.21,4.94-4.43,5.7.5-.21,3.24-1.29,6.33,0,3.05,1.27,4.22,3.92,4.43,4.43-1-.3-3.45-.88-6.33,0-3.97,1.21-5.89,4.3-6.33,5.07,1.11.04,3.45.29,5.7,1.9Zm-77.26-8.87c.73-2.83,1.89-6.33,3.8-10.13,1.86-3.69,3.91-6.63,5.7-8.87-.16.88-.29,2.21,0,3.8.38,2.12,1.32,3.63,1.9,4.43.51-2.45,1.3-5.25,2.53-8.23,2.59-6.28,6.09-10.89,8.87-13.93-.28.78-.56,1.86-.63,3.17-.11,1.92.3,3.48.63,4.43.73-3.53,2.27-8.63,5.7-13.93,1.89-2.92,3.91-5.21,5.7-6.97-.45,1.38-.87,2.86-1.27,4.43-.56,2.24-.97,4.36-1.27,6.33,2.94-4.21,5.91-8.65,8.87-13.3,2.46-3.87,4.78-7.67,6.97-11.4-.16,2.01-.5,4.87-1.27,8.23-2.28,9.98-7.03,18.39-15.2,28.5-7.54,9.33-14.18,15.39-20.9,21.53-11.84,10.81-19.63,15.98-25.33,27.86-1.63,3.4-2.61,6.35-3.17,8.23.64-5.31,1.67-9.62,2.53-12.67,1.29-4.57,3.78-13.11,10.13-22.17,1.98-2.82,3.82-4.96,5.07-6.33-.27.59-.68,1.72-.63,3.17.06,1.9.89,3.25,1.27,3.8Zm29.76,8.23c6.48.56,11.98-4.24,13.93-9.5.25-.67,2.86-8.07-1.9-13.3-2.99-3.28-7.07-3.72-8.23-3.8,1.37-1.32,5.55-5,12.03-5.7,4.27-.46,7.68.57,9.5,1.27,2.06,2.07,5.47,6.1,6.97,12.03,2.71,10.77-2.44,21.59-9.5,27.86-9.47,8.42-20.97,8.71-26.6,8.23-4.45-.38-11.37-2.23-15.83-7.6-1.89-2.27-2.74-4.68-3.17-6.33.81-1.56,2.69-4.63,6.33-6.97,2.45-1.57,4.79-2.23,6.33-2.53.49.74,3.97,5.8,10.13,6.33Zm-8.23-6.97c.25-.53.65-1.21,1.27-1.9.91-1.01,1.89-1.59,2.53-1.9.29.08,1.73.48,2.53,1.9.1.17,1.16,2.13,0,3.8-.84,1.22-2.43,1.67-3.8,1.27-1.4-.41-2.42-1.67-2.53-3.17Zm62.06-36.1c-12.33-.45-21.37,5.24-24.7,7.6-1.56-.29-3.25-.51-5.07-.63-5.5-.37-10.26.35-13.93,1.27,1.27-1.9,2.56-4.01,3.8-6.33.7-1.3,5.3-7.84,6.97-10.13,6.33-8.7,10.22-17.37,12.67-24.7.13,3.45-.04,8.05-1.27,13.3-1.57,6.71-4.23,11.85-6.33,15.2,2.52-1.45,6.39-3.33,11.4-4.43,4.78-1.05,12.63-2.78,20.26,1.27,5.66,3,8.69,7.85,10.13,10.77-3.23-1.39-8.02-2.95-13.93-3.17Zm5.07-25.96c-8.87,6.33-17.7,9.29-24.06,10.77,1.32-2.8,3.63-6.67,7.6-10.13,9.74-8.49,21.79-7.84,24.7-7.6-2.29,2.28-5.01,4.67-8.23,6.97Zm-3.17-19.63c1.12-2.14,2.9-4.93,5.7-7.6,5.45-5.21,11.56-6.96,14.56-7.6-.8,1.53-1.84,3.26-3.17,5.07-1.3,1.76-2.61,3.23-3.8,4.43.86.59,2.36,1.46,4.43,1.9,2.2.46,4.03.22,5.07,0-1.27,1.84-2.65,3.03-3.8,3.8-7.72,5.2-17.92.51-19,0Zm-36.1-12.03c3.55-1.74,6.92-2.34,9.5-2.53-5.04,4.91-8.2,9.47-10.13,12.66-3.52,5.84-3.57,8.16-7.6,13.93-.62.89-3.73,5.3-8.87,10.13-4.53,4.27-5.71,4.23-11.4,9.5-5.8,5.37-7.05,7.7-7.6,8.87-1.87,3.96-2.02,7.75-1.9,10.13-3.08-5.31-8.89-17.13-7.6-32.3.47-5.52,1.77-10.22,3.17-13.93-.45,3.88-.61,10.85,3.17,17.73.79,1.44,1.65,2.7,2.53,3.8-.09-3.93.26-9.81,2.53-16.46,1.66-4.85,3.84-8.66,5.7-11.4-.5,1.73-1.09,4.65-.63,8.23.35,2.74,1.2,4.89,1.9,6.33.19-2.87,1.13-11.15,7.6-18.36,3.85-4.29,8.13-6.5,10.77-7.6-1.48,1.84-3.83,5.26-5.07,10.13-1,3.94-.88,7.32-.63,9.5.69-2.41,4.07-13.23,14.56-18.36Zm-81.06-30.4c.93-.82,2.87-2.2,6.33-2.53-.47.34-2.68,2.02-3.17,5.07-.33,2.1.32,3.76.63,4.43.71-1.61,3-6.18,8.23-8.87,2.74-1.41,5.3-1.79,6.97-1.9-.65.35-2.16,1.29-3.17,3.17-1.38,2.59-.79,5.09-.63,5.7,1.69-1.97,4.97-5.27,10.13-7.6,4.37-1.97,8.31-2.44,10.77-2.53-.66.45-2.21,1.63-3.17,3.8-.99,2.26-.76,4.28-.63,5.07,2.54-1.83,7.84-5.1,15.2-5.7,3.55-.29,6.59.12,8.87.63-2.01.34-5.47,1.22-8.87,3.8-1.69,1.28-2.93,2.65-3.8,3.8,3.95-1.97,11.41-4.97,20.9-4.43,3.99.22,7.42,1.02,10.13,1.9-19,12.03-24.06,21.53-25.96,33.56-6.08-.7-30.96-3.83-43.7-12.03-1.23-.79-3.76-2.55-5.7-5.7-3.57-5.8-4.44-15.15.63-19.63Zm-76.62,1.9c9.49-.53,16.95,2.46,20.9,4.43-.87-1.15-2.11-2.52-3.8-3.8-3.4-2.58-6.86-3.46-8.87-3.8,2.27-.51,5.31-.92,8.87-.63,7.36.6,12.66,3.87,15.2,5.7.13-.79.36-2.81-.63-5.07-.95-2.17-2.5-3.35-3.17-3.8,2.45.1,6.39.56,10.77,2.53,5.16,2.33,8.45,5.63,10.13,7.6.16-.6.75-3.11-.63-5.7-1-1.88-2.52-2.81-3.17-3.17,1.67.1,4.23.49,6.97,1.9,5.23,2.69,7.52,7.26,8.23,8.87.31-.67.97-2.33.63-4.43-.49-3.05-2.7-4.73-3.17-5.07,3.46.34,5.4,1.71,6.33,2.53,5.08,4.49,4.21,13.83.63,19.63-1.94,3.15-4.47,4.91-5.7,5.7-12.73,8.21-37.62,11.33-43.7,12.03-1.9-12.03-6.97-21.53-25.96-33.56,2.71-.88,6.14-1.67,10.13-1.9Zm29.76,157.68c1.55,4.05,1.45,7.62,1.27,9.5-.79-1.88-2.29-4.79-5.07-7.6-3.31-3.35-6.84-4.96-8.87-5.7,1.17,1.37,2.69,3.47,3.8,6.33,1.77,4.58,1.54,8.65,1.27,10.77-.69-2.23-2.34-6.47-6.33-10.13-2.03-1.87-4.09-3.05-5.7-3.8.9,1.89,1.9,4.46,2.53,7.6.6,2.97.7,5.58.63,7.6-1.09-2.41-2.86-5.62-5.7-8.87-2.22-2.54-4.47-4.39-6.33-5.7.35,1.75.63,3.89.63,6.33,0,3.62-.62,6.65-1.27,8.87-.93-2.84-1.98-5.81-3.17-8.87-1.03-2.66-2.1-5.19-3.17-7.6-1.06,1.88-2.27,4.43-3.17,7.6-.9,3.21-1.2,6.06-1.27,8.23-1.18-1.98-3.04-5.76-3.17-10.76-.05-2.25.26-4.18.63-5.7-1.02.24-4.42,1.16-6.97,4.43-2.94,3.78-2.62,7.96-2.53,8.87-.64-.91-3.75-5.53-2.53-11.4.64-3.09,2.22-5.23,3.17-6.33-1.25.08-4.16.44-6.97,2.53-3.96,2.94-4.87,7.19-5.07,8.23-.41-1.51-1.66-6.9,1.27-12.03.97-1.7,2.15-2.94,3.17-3.8-.79-.45-3.47-1.84-6.97-1.27-4.27.71-6.55,3.84-6.97,4.43-.04-.61-.37-6.24,3.8-9.5,1.62-1.27,3.33-1.72,4.43-1.9-.44-.39-3.71-3.27-8.23-2.53-3.18.51-5.11,2.51-5.7,3.17.01-.65.19-5.84,4.43-8.87,2.25-1.6,4.59-1.86,5.7-1.9-.45-.76-2.37-3.86-6.33-5.07-2.88-.88-5.33-.3-6.33,0,.21-.51,1.38-3.16,4.43-4.43,3.09-1.29,5.83-.21,6.33,0-.23-.75-1.25-3.86-4.43-5.7-2.1-1.21-4.12-1.29-5.07-1.27.37-.41,2.13-2.29,5.07-2.53,3.18-.26,5.33,1.57,5.7,1.9-.79-1.94-.75-3.51-.63-4.43.51-3.99,4.01-7.42,8.87-8.87-1.65,2.25-3.87,5.88-5.07,10.77-2.62,10.69,1.57,19.55,3.17,22.8,6.97,14.2,20.68,18.94,22.8,19.63,2.48.81,15.57,4.83,29.13-1.9,5.91-2.93,9.81-6.86,12.03-9.5,1.95,1.65,4.35,4.12,6.33,7.6,4.87,8.57,3.72,17.23,3.17,20.26-.78-2.23-2.26-5.54-5.07-8.87-3.65-4.33-7.77-6.54-10.13-7.6,1.24,1.29,3.14,3.59,4.43,6.97Zm-99.42-127.29c-1.33-1.81-2.37-3.54-3.17-5.07,3.01.64,9.11,2.38,14.56,7.6,2.8,2.67,4.58,5.46,5.7,7.6-1.08.51-11.27,5.2-19,0-1.15-.77-2.53-1.96-3.8-3.8,1.04.22,2.87.46,5.07,0,2.07-.44,3.58-1.31,4.43-1.9-1.19-1.2-2.5-2.67-3.8-4.43Zm30.4,30.4c3.97,3.46,6.28,7.33,7.6,10.13-6.37-1.47-15.2-4.43-24.06-10.77-3.22-2.3-5.95-4.69-8.23-6.97,2.9-.24,14.96-.89,24.7,7.6Zm-15.2,17.73c7.63-4.05,15.48-2.32,20.26-1.27,5.01,1.1,8.88,2.98,11.4,4.43-2.1-3.35-4.77-8.49-6.33-15.2-1.22-5.25-1.4-9.85-1.27-13.3,2.45,7.32,6.33,16,12.67,24.7,1.67,2.3,6.27,8.83,6.97,10.13,1.24,2.32,2.53,4.43,3.8,6.33-3.67-.92-8.43-1.63-13.93-1.27-1.82.12-3.51.35-5.07.63-3.33-2.36-12.36-8.05-24.7-7.6-5.92.22-10.7,1.78-13.93,3.17,1.45-2.92,4.47-7.76,10.13-10.77Zm43.7,41.16c1.95,5.26,7.45,10.06,13.93,9.5,6.16-.53,9.64-5.59,10.13-6.33,1.55.3,3.89.96,6.33,2.53,3.64,2.34,5.52,5.4,6.33,6.97-.42,1.65-1.28,4.06-3.17,6.33-4.47,5.37-11.38,7.22-15.83,7.6-5.62.48-17.13.19-26.6-8.23-7.05-6.28-12.21-17.09-9.5-27.86,1.5-5.93,4.9-9.96,6.97-12.03,1.81-.7,5.23-1.73,9.5-1.27,6.48.7,10.66,4.38,12.03,5.7-1.16.08-5.24.52-8.23,3.8-4.76,5.23-2.15,12.63-1.9,13.3Zm15.83.63c.8-1.42,2.24-1.82,2.53-1.9.64.31,1.62.88,2.53,1.9.62.69,1.01,1.37,1.27,1.9-.12,1.49-1.13,2.75-2.53,3.17-1.37.4-2.96-.05-3.8-1.27-1.16-1.67-.1-3.63,0-3.8Zm17.73-1.27c-6.72-6.14-13.36-12.2-20.9-21.53-8.16-10.11-12.91-18.52-15.2-28.5-.77-3.36-1.1-6.22-1.27-8.23,2.19,3.73,4.51,7.53,6.97,11.4,2.96,4.65,5.92,9.09,8.87,13.3-.3-1.97-.71-4.09-1.27-6.33-.39-1.57-.82-3.05-1.27-4.43,1.79,1.75,3.81,4.05,5.7,6.97,3.43,5.3,4.96,10.4,5.7,13.93.33-.96.74-2.51.63-4.43-.07-1.3-.36-2.38-.63-3.17,2.78,3.04,6.28,7.65,8.87,13.93,1.23,2.99,2.02,5.78,2.53,8.23.58-.8,1.52-2.31,1.9-4.43.29-1.59.16-2.92,0-3.8,1.79,2.23,3.84,5.18,5.7,8.87,1.91,3.8,3.07,7.3,3.8,10.13.38-.55,1.2-1.9,1.27-3.8.05-1.45-.36-2.57-.63-3.17,1.25,1.37,3.09,3.52,5.07,6.33,6.36,9.06,8.84,17.59,10.13,22.17.86,3.04,1.89,7.36,2.53,12.67-.56-1.88-1.53-4.83-3.17-8.23-5.7-11.88-13.49-17.05-25.33-27.86Zm-39.26-90.56c10.5,5.14,13.87,15.95,14.56,18.36.25-2.18.36-5.56-.63-9.5-1.23-4.87-3.58-8.29-5.07-10.13,2.63,1.1,6.91,3.3,10.77,7.6,6.47,7.21,7.41,15.5,7.6,18.36.7-1.44,1.55-3.6,1.9-6.33.46-3.58-.14-6.5-.63-8.23,1.86,2.74,4.04,6.55,5.7,11.4,2.27,6.66,2.62,12.54,2.53,16.46.88-1.1,1.74-2.36,2.53-3.8,3.77-6.88,3.61-13.85,3.17-17.73,1.4,3.71,2.7,8.41,3.17,13.93,1.29,15.17-4.52,26.98-7.6,32.3.12-2.38-.03-6.18-1.9-10.13-.55-1.17-1.8-3.5-7.6-8.87-5.69-5.27-6.87-5.23-11.4-9.5-5.13-4.84-8.24-9.24-8.87-10.13-4.03-5.78-4.08-8.09-7.6-13.93-1.93-3.2-5.09-7.75-10.13-12.66,2.58.19,5.95.8,9.5,2.53ZM182.82,13.22c1.34,4.25,3.47,9.56,6.97,15.2,5.05,8.14,10.91,13.67,15.2,17.1,2.4,1.8,6.35,5.23,9.5,10.77,3.22,5.66,4.13,10.92,4.43,13.93,1.24-1.74,2.56-3.85,3.8-6.33,1.51-3.03,2.5-5.85,3.17-8.23.92,2.99,1.9,7.35,1.9,12.67,0,3.12-.34,7.58-1.9,12.66,2.57,1.31,5.36,2.96,8.23,5.07,6.91,5.06,11.56,10.75,14.56,15.2-1.26-1.11-3.19-2.72-5.7-4.43-7.45-5.1-11.61-5.44-17.1-8.23-9.61-4.89-8.48-9.75-19-17.1-6.12-4.27-11.98-6.45-15.83-7.6,1.27-.99,3.17-2.24,5.7-3.17,3.39-1.24,6.39-1.35,8.23-1.27-1.4-1.48-3.39-3.64-5.7-6.33-1.45-1.69-7.74-9.03-10.77-13.93-2.34-3.8-6.32-11.96-5.7-25.96Zm-16.46,261.22c.72-7.73,5.11-12.92,6.97-14.88-.66,6-1,16.15,2.53,27.63,1.82,5.89,4.19,10.62,6.33,14.17-10.54-5.37-16.82-16.34-15.83-26.92Zm20.26,22.8c.72-7.73,5.11-12.92,6.97-14.88-.66,6-1,16.15,2.53,27.63,1.82,5.89,4.19,10.62,6.33,14.17-10.54-5.37-16.82-16.34-15.83-26.92Zm10.13-83.27c-1.49-3.79-1.89-7.35-1.9-10.13-2.04,4.64-4.41,11.58-5.07,20.26-.43,5.7,0,10.66.63,14.57-1.7-1.64-4.92-5.23-6.33-10.77-.7-2.74-.75-5.16-.63-6.97-1.92,2.31-4.58,6.12-6.33,11.4-2.45,7.39-1.83,13.81-1.27,17.1-2.08-3.13-6.06-10.09-6.33-19.63-.15-5.31.9-9.69,1.9-12.67-.84.31-2.02.87-3.17,1.9-2.32,2.08-2.97,4.69-3.17,5.7-.88-2.72-2.09-7.73-1.27-13.93,1.01-7.6,4.53-12.85,6.33-15.2-1.15.15-2.72.48-4.43,1.27-2.51,1.16-4.16,2.76-5.07,3.8.43-4.24,1.32-9.44,3.17-15.2,2.2-6.88,5.08-12.4,7.6-16.46-1.52.43-3.24,1.03-5.07,1.9-3.31,1.57-5.82,3.47-7.6,5.07,1.11-5.09,2.86-11.16,5.7-17.73,3.56-8.24,7.76-14.78,11.4-19.63-1.56.66-3.28,1.49-5.07,2.53-2.84,1.66-5.15,3.45-6.97,5.07,1.12-5.77,3.61-13.8,9.5-21.53,3.61-4.73,7.96-10.44,15.83-12.67,5.57-1.57,10.5-.73,13.3,0-3.51,1.97-12.48,7.64-17.73,19-3.34,7.22-3.83,13.83-3.8,17.73.19-.62,1.66-5.06,6.33-6.97,3.96-1.62,7.48-.3,8.23,0-1.93,1.94-5.82,6.38-7.6,13.3-2.26,8.75.28,15.92,1.27,18.36.29-1.15,3.34-12.64,13.3-15.83,2.86-.91,5.53-.9,7.6-.63-3.11,2.93-9.65,9.93-12.03,20.9-1.09,5-1,9.4-.63,12.67,1.03-1.92,2.63-4.43,5.07-6.97,2.27-2.36,4.55-3.98,6.33-5.07-1.99,8.58-4.19,24.14,1.9,41.16,1.65,4.61,3.65,8.61,5.7,12.03-2.56-.89-14.81-5.46-19.63-17.73Zm10.77,99.1c.72-7.73,5.11-12.92,6.97-14.88-.66,6-1,16.15,2.53,27.63,1.82,5.89,4.19,10.62,6.33,14.17-10.54-5.37-16.82-16.34-15.83-26.92Zm23.43,17.1c.72-7.73,5.11-12.92,6.97-14.88-.66,6-1,16.15,2.53,27.63,1.82,5.89,4.19,10.62,6.33,14.17-10.54-5.37-16.82-16.34-15.83-26.92Zm21.53,14.89c-.95-9.7,1.76-17.62,3.8-22.16,2.28,10.3,3.76,21.49,8.87,34.2,3.62,9,9.43,17.67,13.3,24.7-2.39-1.31-23.68-13.46-25.96-36.73Zm28.5,14.57c-.39-8.39,1.59-15.56,3.8-20.9,2.03,10.27,5.45,22.92,11.4,36.73,5.41,12.58,11.55,22.93,17.1,31.03-2.93-1.66-30.96-18.08-32.3-46.86Zm23.53-37.65c-.82,6.43-.41,12.07.31,16.47-20.03-15.56-27-37.72-27.06-51.74-2.39,3.07-5.37,7.66-7.46,13.75-3.58,10.4-2.63,19.52-1.79,24.21-4-4.01-12.88-14.04-15.64-29.55-1.43-8.05-.75-14.95.15-19.67-2.46,1.38-8.13,4.98-12,12.1-4.6,8.48-3.74,16.55-3.34,19.22-2.39-3.37-13.34-19.5-8.52-38.21,1.31-5.07,3.48-9.19,5.64-12.37-2.77.84-8.05,2.86-12.88,7.71-6.51,6.55-8.1,14.17-8.55,16.98-1.36-3.93-5.41-17.21.76-31.12,2.37-5.35,5.58-9.26,8.2-11.88,14.03,16.31,28.24,26.28,37.99,32.08,3.35,2,12.3,7.15,24.78,11.91,13,4.96,24.62,7.5,33.49,8.87-4.2,4.94-12.11,15.71-14.07,31.25Zm15.1-56.08c-1.76-3-3.7-7.04-5.07-12.03-2.3-8.42-1.9-15.71-1.27-20.26-2.21,3.84-4.93,9.63-6.33,17.1-2.09,11.16-.17,20.37,1.27,25.33-2.12-1.34-6.1-4.28-8.87-9.5-4.53-8.56-2.47-16.94-1.9-19-17.1,4.43-32.9-.53-34.83-1.27,43.06-4.43,54.51-28.1,57.63-39.26,3.86-13.8-1.43-26.26-5.07-34.83-4.13-9.72-9.52-16.67-13.3-20.9,3.28,2.12,7.34,5.18,11.4,9.5,4.54,4.83,7.55,9.61,9.5,13.3.17-4.3-.07-9.48-1.27-15.2-3.22-15.34-11.56-25.8-16.46-31.03,3.61,1.36,10.11,4.36,15.83,10.76,5.13,5.75,7.17,11.47,8.23,14.57,6.4,18.57-.96,37.77-3.17,43.06-2.25,7.34-4.31,15.83-5.7,25.33-2.52,17.31-2,32.49-.63,44.33Zm29.86-20.09c-1.93,21.25-7.64,37.81-12.44,48.71-4.8-10.89-10.52-27.46-12.44-48.71-1.03-11.41-.73-21.52,0-29.7,1.34-1.44,5.84-5.88,12.44-5.94,6.61.06,11.1,4.5,12.44,5.94.73,8.18,1.03,18.29,0,29.7Zm4.34-24.24c-1.39-9.5-3.45-17.99-5.7-25.33-2.2-5.29-9.56-24.5-3.17-43.06,1.07-3.09,3.1-8.82,8.23-14.57,5.72-6.4,12.22-9.41,15.83-10.76-4.91,5.23-13.24,15.68-16.47,31.03-1.2,5.72-1.43,10.89-1.27,15.2,1.95-3.69,4.96-8.47,9.5-13.3,4.06-4.32,8.12-7.38,11.4-9.5-3.78,4.23-9.17,11.18-13.3,20.9-3.64,8.57-8.93,21.03-5.07,34.83,3.12,11.17,14.57,34.83,57.63,39.26-1.93.74-17.73,5.7-34.83,1.27.57,2.06,2.63,10.44-1.9,19-2.77,5.22-6.74,8.16-8.87,9.5,1.44-4.96,3.36-14.17,1.27-25.33-1.4-7.47-4.12-13.26-6.33-17.1.64,4.55,1.04,11.84-1.27,20.26-1.37,4.99-3.31,9.03-5.07,12.03,1.37-11.84,1.89-27.02-.63-44.33Zm39.26,138.05c-1.34,28.78-29.36,45.2-32.3,46.86,5.55-8.1,11.68-18.45,17.1-31.03,5.94-13.81,9.37-26.46,11.4-36.73,2.21,5.33,4.19,12.51,3.8,20.9Zm28.5-14.57c-2.29,23.27-23.57,35.41-25.96,36.73,3.86-7.03,9.68-15.69,13.3-24.7,5.11-12.71,6.59-23.9,8.87-34.2,2.04,4.54,4.75,12.46,3.8,22.16Zm5.7,12.03c2.14-3.55,4.52-8.28,6.33-14.17,3.54-11.47,3.19-21.63,2.53-27.63,1.86,1.96,6.24,7.15,6.97,14.88.99,10.57-5.29,21.55-15.83,26.92Zm17.63-88.53c4.82,18.7-6.13,34.84-8.52,38.21.4-2.67,1.26-10.74-3.34-19.22-3.87-7.12-9.53-10.73-12-12.1.9,4.72,1.58,11.62.15,19.67-2.76,15.51-11.65,25.55-15.64,29.55.84-4.68,1.79-13.8-1.79-24.21-2.09-6.09-5.07-10.67-7.46-13.75-.06,14.01-7.02,36.18-27.06,51.74.71-4.4,1.12-10.04.31-16.47-1.97-15.54-9.88-26.31-14.07-31.25,8.87-1.38,20.48-3.91,33.49-8.87,12.49-4.76,21.43-9.91,24.78-11.91,9.75-5.81,23.95-15.78,37.99-32.08,2.63,2.63,5.83,6.53,8.2,11.88,6.17,13.91,2.12,27.2.76,31.12-.44-2.81-2.03-10.42-8.55-16.98-4.83-4.86-10.11-6.88-12.88-7.71,2.16,3.18,4.33,7.31,5.64,12.37Zm5.8,71.44c2.14-3.55,4.52-8.28,6.33-14.17,3.54-11.47,3.19-21.63,2.53-27.63,1.86,1.96,6.24,7.15,6.97,14.88.99,10.58-5.29,21.55-15.83,26.92Zm20.9-15.83c2.14-3.55,4.52-8.28,6.33-14.17,3.54-11.47,3.19-21.63,2.53-27.63,1.86,1.96,6.24,7.15,6.97,14.88.99,10.58-5.29,21.55-15.83,26.92Zm20.26-22.8c2.14-3.55,4.52-8.28,6.33-14.17,3.54-11.47,3.19-21.63,2.53-27.63,1.86,1.96,6.24,7.15,6.97,14.88.99,10.58-5.29,21.55-15.83,26.92Zm18.36-115.89c1.84,5.75,2.74,10.96,3.17,15.2-.91-1.04-2.55-2.64-5.07-3.8-1.72-.79-3.29-1.12-4.43-1.27,1.8,2.34,5.32,7.6,6.33,15.2.82,6.2-.39,11.21-1.27,13.93-.2-1.01-.84-3.62-3.17-5.7-1.15-1.03-2.32-1.59-3.17-1.9,1,2.98,2.05,7.35,1.9,12.67-.27,9.54-4.25,16.5-6.33,19.63.56-3.29,1.18-9.7-1.27-17.1-1.75-5.28-4.41-9.08-6.33-11.4.12,1.8.06,4.23-.63,6.97-1.41,5.54-4.64,9.13-6.33,10.77.63-3.9,1.06-8.86.63-14.57-.65-8.68-3.03-15.62-5.07-20.26,0,2.79-.41,6.34-1.9,10.13-4.83,12.27-17.07,16.84-19.63,17.73,2.05-3.42,4.05-7.42,5.7-12.03,6.09-17.02,3.89-32.58,1.9-41.16,1.78,1.08,4.06,2.71,6.33,5.07,2.44,2.53,4.04,5.05,5.07,6.97.36-3.26.45-7.66-.63-12.67-2.38-10.97-8.92-17.97-12.03-20.9,2.07-.27,4.74-.28,7.6.63,9.96,3.19,13.01,14.68,13.3,15.83.99-2.45,3.52-9.62,1.27-18.36-1.78-6.91-5.67-11.36-7.6-13.3.75-.3,4.28-1.62,8.23,0,4.67,1.91,6.14,6.35,6.33,6.97.03-3.9-.46-10.51-3.8-17.73-5.25-11.36-14.22-17.03-17.73-19,2.79-.73,7.73-1.57,13.3,0,7.88,2.22,12.23,7.93,15.83,12.67,5.89,7.73,8.38,15.76,9.5,21.53-1.81-1.62-4.12-3.4-6.97-5.07-1.79-1.05-3.5-1.87-5.07-2.53,3.64,4.85,7.84,11.39,11.4,19.63,2.84,6.58,4.59,12.65,5.7,17.73-1.78-1.59-4.29-3.49-7.6-5.07-1.83-.87-3.55-1.47-5.07-1.9,2.52,4.07,5.39,9.59,7.6,16.46Z"/>
      <path d="m331.9,217.09c-.93,1.6-2.22,4.26-2.93,7.92-.41,2.1-1.25,7.73.73,13.86,1.11,3.43,2.67,5.69,3.66,6.93v-9.9c-.82-2.07-2.06-5.88-2.2-10.89-.09-3.29.32-6.02.73-7.92Z"/>
    </g>
    <g>
      <g>
        <g>
          <path d="m255.79,476.78c4.03,5.94,9.04,11.08,14.4,14.88,5.39,3.49,11.07,6.09,16.31,8.01-4.99.82-11.29,2.29-18.2,4.91-6.86,2.14-14.32,5.15-21.76,9.99-9.59,6.39-15.79,12.43-19.79,18.47-3.99,5.87-5.61,11.01-6.21,13.36,3.68.43,12.36,1.9,23.11.13,5.33-.73,11.09-1.93,16.79-3.83,5.69-1.83,11.4-5.24,16.51-9.02,7.92-6.04,12.45-12.53,15.18-18.34,2.71-5.98,3.62-11.26,4-14.67,3.3-.61,6.73-.67,10-.12-.67-3.95-2.15-9.89-5.12-16.61-2.96-6.85-7.41-13.89-13.63-21.95-4.05-5.08-8.15-9.21-12.12-12.52-3.96-3.36-7.7-6.72-11.17-8.97-3.44-2.44-6.65-3.84-9.18-5.44-2.54-1.55-4.55-2.54-5.76-3.09-.65,2.73-2.04,8.82-1.89,16.85.19,7.99,1.87,18.31,8.54,27.97Z"/>
          <path d="m202.3,461.27c2.2,7.08,6.07,12.25,10.19,17.22,4.2,4.77,8.76,9.13,13.39,11.72-5.05.05-11.19-.6-18.26,0-7.07.57-15.03,2.17-22.98,4.49-20.78,6.47-30.06,19.99-32.15,24.24,3.39,1.2,11.55,3.93,21.78,5.38,5.04.89,10.88.77,16.77.12,5.89-.66,11.89-1.98,17.59-4.27,17.8-7.88,23.73-20.74,26.13-26.87,3.23.36,6.44,1.3,9.37,2.73.75-7.76-.02-24.14-8.35-41.21-2.75-5.33-5.51-10.71-8.43-14.96-2.88-4.38-5.95-7.68-8.66-10.82-5.3-6.51-10.16-10.17-12.29-11.66-2.32,4.97-11.49,21.41-4.12,43.88Z"/>
          <path d="m154.11,433.06c.73,6.8,2.76,13.17,5.43,18.92,2.84,5.5,6.52,10.05,10.02,14.02-4.52-1.59-10.61-2.96-17.39-4.11-6.65-1.35-14.32-2.03-22.69-1.27-10.76,1-18.66,3.38-24.69,6.7-5.94,3.18-9.58,6.79-11.12,8.5,5.29,4.25,28.23,18.38,52.5,14.3,18.61-3.16,27.06-13.46,30.88-18.78,3.04.97,5.94,2.45,8.42,4.37,1.25-3.59,2.73-9.19,3.31-16.12.29-3.47.36-7.25.11-11.29-.16-4.22-.62-8.7-1.49-13.35-1.13-6.05-2.78-11.32-4.66-15.9-1.63-4.95-3.52-9.17-5.44-12.7-4.04-6.79-7.28-12.05-8.93-14-1.76,2.01-5.62,6.51-9.02,13.33-3.27,6.69-6.6,16.36-5.24,27.38Z"/>
          <path d="m114.09,394.02c-.51,3.34-.83,6.78-.63,9.93.24,3.12.74,6.16,1.43,9.1,1.41,5.84,3.44,11.37,5.82,15.91-3.94-2.52-8.93-5.67-15.15-8.28-3.08-1.33-6.51-2.51-10.09-3.59-3.42-1.2-7.12-2.21-11.06-2.91-20.33-3.71-34.1,3.58-37.71,6.19,2.28,2.5,7.92,8.3,15.85,13.98,7.62,5.93,18.99,10.4,30.47,11.7,8.86,1.04,16.32-.88,21.9-3.22,5.59-2.36,9.48-5.3,11.89-7.38,2.56,1.73,4.86,3.91,6.67,6.4,4.16-6.13,10.93-20.01,11.45-37.94.39-6.01.31-11.61-.29-16.49-.51-4.95-1.76-9.02-2.43-13.08-1.65-7.83-4.21-13.07-5.34-15.3-4.18,3.16-19.09,12.91-22.78,34.98Z"/>
          <path d="m84.7,346.36c-2.4,6.01-3.52,12.22-3.84,18.2-.5,6.08.9,11.31,1.98,16.21-1.58-1.65-3.45-3.46-5.61-5.34-1.08-.94-2.23-1.89-3.45-2.85-1.11-1.02-2.28-2.05-3.52-3.07-4.98-4.09-11.1-8.06-18.45-11.14-18.18-8.31-32.44-4.84-36.61-3.17.73,1.46,2,3.91,3.8,6.92.9,1.5,1.94,3.14,3.11,4.87,1.26,1.69,2.78,3.41,4.38,5.17,3.23,3.52,7.01,7.13,11.29,10.35,4.24,3.25,8.99,6.1,14.63,7.87,17.01,5.62,28.79.85,34.32-1.84,1.8,2.37,3.55,4.9,4.83,7.56,2.66-2.41,6.42-6.38,10-11.85,3.66-5.52,7.52-12.79,10.13-21.28,1.82-5.59,2.43-10.54,3.3-15.44.82-4.87,1.09-9.26,1.02-13.08-.43-7.5-.69-13.49-1.26-15.87-2.36.9-7.59,2.96-13.46,7.16-2.93,2.11-6.03,4.77-8.98,8.17-1.47,1.7-2.91,3.59-4.27,5.69-1.23,2.04-2.35,4.29-3.34,6.76Z"/>
          <path d="m67.79,292.84c-4.15,5.21-6.26,10.72-7.78,16.23-1.49,5.51-2.17,10.97-2.4,15.87-1.97-3.92-4.82-8.75-8.79-13.71-1.98-2.49-4.24-5.01-6.81-7.48-2.45-2.5-4.94-4.99-7.93-7.31-15.18-12.07-29.87-12-34.08-11.42.8,3.06,2.84,10.32,6.84,18.49,1.02,2.04,2.08,4.14,3.41,6.22,1.44,2.05,3.02,4.1,4.74,6.09,3.43,3.98,7.42,7.73,11.97,10.81,3.52,2.38,6.92,4.05,10.13,5.2,3.38,1.1,6.54,1.7,9.4,1.99,5.73.56,10.3-.11,13.24-.75,1.37,2.59,2.31,5.43,2.7,8.3,6.26-3.19,18.05-11.54,26.62-26.27,6.42-9.8,9.08-18.75,10.92-26.1,2.15-7.4,2.43-13.04,2.47-15.45-4.85.78-21.66,2.43-34.68,19.29Z"/>
          <path d="m64.33,236.72c-4.73,3.95-8.49,8.63-11.48,13.47-2.69,4.83-4.26,9.81-5.48,14.37-1.05-4.15-3.04-9.37-5.54-14.97-2.26-5.61-5.52-11.62-10.21-17.41-6.18-7.45-12.18-12.06-17.48-14.81-5.31-2.76-9.8-3.63-11.84-3.91-.05,1.53-.11,4.1.03,7.37.22,3.28,1.01,7.29,2.05,11.61,2.28,8.64,5.63,18.56,13.44,26.48,11.53,12.21,23.43,13.57,29.23,13.84.4,2.78.81,5.66.62,8.44,6.61-1.51,19.3-6.5,31.64-18.45,3.94-3.86,7.05-7.74,9.52-11.48,2.9-3.73,5.13-7.31,6.84-10.57,1.71-3.26,2.88-6.2,3.69-8.62,1.12-2.39,1.8-4.26,2.19-5.38-2.37-.29-7.64-.87-14.43.06-3.4.47-7.18,1.34-11.17,2.88-3.78,1.57-7.72,3.82-11.62,7.08Z"/>
          <path d="m74.48,181.35c-5.8,2.48-9.8,6.18-13.65,10.05-3.7,3.91-6.81,8.11-9.09,12.08.02-4.15-.08-9.41-1.15-15.29-1.04-5.88-3.08-12.43-5.71-18.83-7.22-16.71-19.48-23.11-23.24-24.49-.69,2.87-2.23,9.75-2.54,18.25-.36,8.47,1.81,18.94,6.44,28.03,3.55,7.03,8.56,11.65,13.04,14.69,4.48,3.04,8.57,4.53,11.29,5.33-.04,2.75-.55,5.53-1.53,8.08,6.59.18,20.22-1.36,33.87-9.8,9.62-5.31,16.13-11.54,20.73-16.95,5.13-5.24,7.92-9.86,9.05-11.87-4.38-1.51-19.12-7.52-37.5.72Z"/>
          <path d="m98.06,130.07c-5.67,1.21-10.85,3.43-15.44,6.13-4.67,2.65-7.96,6.19-11.05,9.38,1.04-3.88,1.49-9.21,2.2-14.81.59-5.66.53-12.1-.83-18.97-1.88-8.91-4.69-15.25-7.98-19.91-3.22-4.62-6.58-7.31-8.15-8.44-3.1,4.6-12.12,24.62-7.17,44.2,4.15,15.22,13.36,21.75,18.04,24.59-.77,2.54-2.14,4.92-3.44,7.18,6.01,1.7,19.13,3.55,34.53-.94,5.04-1.42,9.13-3.4,13.15-5.27,4.06-1.85,7.5-3.88,10.37-5.88,2.91-1.97,5.07-4.03,7.01-5.6,1.99-1.54,3.4-2.83,4.22-3.61-1.84-1.28-5.98-4.08-12.04-6.27-6.08-2.18-14.22-3.83-23.42-1.75Z"/>
        </g>
        <path d="m96.82,109.62c-3.2-6.16-3.14-11.76-2.67-15.29.78-8.65,7.04-16.82,15.26-23.81,3.98-3.61,9.29-6.18,14.75-8.31,5.48-2.1,11.32-3.58,17.25-4.24-.96,8.86-3.55,17.04-7.64,23.93-3.77,7.19-8.52,13.58-15.09,18.1-8.49,6.82-17.35,8.93-21.85,9.61Z"/>
        <path d="m341.52,493.56c-.32-1.67-1.93-2.84-3.6-2.43-58.25,11.39-121-.55-172.33-32.72-50.94-31.5-89.33-82.6-105.34-140.22-8.42-29.77-11.18-59.67-8.19-88.88,2.91-29.96,11.27-58.8,24.85-85.74,7.56-15.15,16.77-29.45,27.33-42.64-1.41-1.51-2.82-3.01-4.24-4.52-11.07,13.71-20.71,28.6-28.59,44.4-13.92,27.61-22.48,57.18-25.47,87.88-3.07,29.97-.25,60.64,8.38,91.15,16.41,59.07,55.78,111.48,108.01,143.77,49.47,31,109.34,43.65,165.94,35.38,3.62-.53,7.22-1.15,10.81-1.85,1.67-.32,2.76-1.94,2.43-3.6Z"/>
      </g>
      <g>
        <g>
          <path d="m418.25,476.78c-4.03,5.94-9.04,11.08-14.4,14.88-5.39,3.49-11.07,6.09-16.31,8.01,4.99.82,11.29,2.29,18.2,4.91,6.86,2.14,14.32,5.15,21.76,9.99,9.59,6.39,15.79,12.43,19.79,18.47,3.99,5.87,5.61,11.01,6.21,13.36-3.68.43-12.36,1.9-23.11.13-5.33-.73-11.09-1.93-16.79-3.83-5.69-1.83-11.4-5.24-16.51-9.02-7.92-6.04-12.45-12.53-15.18-18.34-2.71-5.98-3.62-11.26-4-14.67-3.3-.61-6.73-.67-10-.12.67-3.95,2.15-9.89,5.12-16.61,2.96-6.85,7.41-13.89,13.63-21.95,4.05-5.08,8.15-9.21,12.12-12.52,3.96-3.36,7.7-6.72,11.17-8.97,3.44-2.44,6.65-3.84,9.18-5.44,2.54-1.55,4.55-2.54,5.76-3.09.65,2.73,2.04,8.82,1.89,16.85-.19,7.99-1.87,18.31-8.54,27.97Z"/>
          <path d="m471.74,461.27c-2.2,7.08-6.07,12.25-10.19,17.22-4.2,4.77-8.76,9.13-13.39,11.72,5.05.05,11.19-.6,18.26,0,7.07.57,15.03,2.17,22.98,4.49,20.78,6.47,30.06,19.99,32.15,24.24-3.39,1.2-11.55,3.93-21.78,5.38-5.04.89-10.88.77-16.77.12-5.89-.66-11.89-1.98-17.59-4.27-17.8-7.88-23.73-20.74-26.13-26.87-3.23.36-6.44,1.3-9.37,2.73-.75-7.76.02-24.14,8.35-41.21,2.75-5.33,5.51-10.71,8.43-14.96,2.88-4.38,5.95-7.68,8.66-10.82,5.3-6.51,10.16-10.17,12.29-11.66,2.32,4.97,11.49,21.41,4.12,43.88Z"/>
          <path d="m519.94,433.06c-.73,6.8-2.76,13.17-5.43,18.92-2.84,5.5-6.52,10.05-10.02,14.02,4.52-1.59,10.61-2.96,17.39-4.11,6.65-1.35,14.32-2.03,22.69-1.27,10.76,1,18.66,3.38,24.69,6.7,5.94,3.18,9.58,6.79,11.12,8.5-5.29,4.25-28.23,18.38-52.5,14.3-18.61-3.16-27.06-13.46-30.87-18.78-3.04.97-5.93,2.45-8.42,4.37-1.25-3.59-2.73-9.19-3.31-16.12-.29-3.47-.36-7.25-.11-11.29.16-4.22.62-8.7,1.49-13.35,1.13-6.05,2.78-11.32,4.66-15.9,1.63-4.95,3.52-9.17,5.44-12.7,4.04-6.79,7.28-12.05,8.93-14,1.76,2.01,5.62,6.51,9.02,13.33,3.27,6.69,6.6,16.36,5.24,27.38Z"/>
          <path d="m559.96,394.02c.51,3.34.83,6.78.63,9.93-.24,3.12-.74,6.16-1.43,9.1-1.41,5.84-3.44,11.37-5.82,15.91,3.94-2.52,8.93-5.67,15.15-8.28,3.08-1.33,6.51-2.51,10.09-3.59,3.42-1.2,7.12-2.21,11.06-2.91,20.33-3.71,34.1,3.58,37.71,6.19-2.28,2.5-7.92,8.3-15.85,13.98-7.62,5.93-18.99,10.4-30.47,11.7-8.86,1.04-16.32-.88-21.9-3.22-5.59-2.36-9.48-5.3-11.89-7.38-2.56,1.73-4.86,3.91-6.67,6.4-4.16-6.13-10.93-20.01-11.45-37.94-.39-6.01-.31-11.61.29-16.49.51-4.95,1.76-9.02,2.43-13.08,1.65-7.83,4.21-13.07,5.34-15.3,4.18,3.16,19.09,12.91,22.78,34.98Z"/>
          <path d="m589.35,346.36c2.4,6.01,3.52,12.22,3.84,18.2.5,6.08-.9,11.31-1.98,16.21,1.58-1.65,3.45-3.46,5.6-5.34,1.08-.94,2.23-1.89,3.45-2.85,1.11-1.02,2.28-2.05,3.52-3.07,4.98-4.09,11.1-8.06,18.45-11.14,18.18-8.31,32.44-4.84,36.61-3.17-.73,1.46-2,3.91-3.8,6.92-.9,1.5-1.94,3.14-3.11,4.87-1.26,1.69-2.78,3.41-4.38,5.17-3.23,3.52-7.01,7.13-11.29,10.35-4.24,3.25-8.99,6.1-14.63,7.87-17.01,5.62-28.79.85-34.32-1.84-1.8,2.37-3.55,4.9-4.83,7.56-2.66-2.41-6.42-6.38-10-11.85-3.66-5.52-7.52-12.79-10.13-21.28-1.82-5.59-2.43-10.54-3.3-15.44-.82-4.87-1.08-9.26-1.02-13.08.43-7.5.69-13.49,1.26-15.87,2.36.9,7.59,2.96,13.46,7.16,2.93,2.11,6.03,4.77,8.98,8.17,1.47,1.7,2.91,3.59,4.27,5.69,1.23,2.04,2.35,4.29,3.34,6.76Z"/>
          <path d="m606.26,292.84c4.15,5.21,6.26,10.72,7.78,16.23,1.49,5.51,2.17,10.97,2.4,15.87,1.97-3.92,4.82-8.75,8.79-13.71,1.98-2.49,4.24-5.01,6.81-7.48,2.45-2.5,4.94-4.99,7.93-7.31,15.18-12.07,29.87-12,34.08-11.42-.8,3.06-2.84,10.32-6.84,18.49-1.02,2.04-2.08,4.14-3.41,6.22-1.44,2.05-3.02,4.1-4.74,6.09-3.43,3.98-7.42,7.73-11.97,10.81-3.52,2.38-6.92,4.05-10.13,5.2-3.38,1.1-6.54,1.7-9.4,1.99-5.73.56-10.3-.11-13.24-.75-1.36,2.59-2.31,5.43-2.7,8.3-6.26-3.19-18.05-11.54-26.62-26.27-6.42-9.8-9.08-18.75-10.92-26.1-2.15-7.4-2.43-13.04-2.47-15.45,4.85.78,21.66,2.43,34.68,19.29Z"/>
          <path d="m609.71,236.72c4.73,3.95,8.49,8.63,11.48,13.47,2.69,4.83,4.26,9.81,5.48,14.37,1.05-4.15,3.04-9.37,5.54-14.97,2.26-5.61,5.52-11.62,10.21-17.41,6.18-7.45,12.18-12.06,17.48-14.81,5.31-2.76,9.8-3.63,11.84-3.91.05,1.53.11,4.1-.03,7.37-.22,3.28-1.01,7.29-2.05,11.61-2.28,8.64-5.63,18.56-13.44,26.48-11.53,12.21-23.43,13.57-29.23,13.84-.4,2.78-.81,5.66-.62,8.44-6.61-1.51-19.3-6.5-31.64-18.45-3.94-3.86-7.05-7.74-9.52-11.48-2.9-3.73-5.13-7.31-6.84-10.57-1.71-3.26-2.88-6.2-3.69-8.62-1.12-2.39-1.8-4.26-2.19-5.38,2.37-.29,7.64-.87,14.43.06,3.4.47,7.18,1.34,11.17,2.88,3.78,1.57,7.72,3.82,11.62,7.08Z"/>
          <path d="m599.56,181.35c5.8,2.48,9.8,6.18,13.65,10.05,3.7,3.91,6.81,8.11,9.09,12.08-.02-4.15.08-9.41,1.15-15.29,1.04-5.88,3.08-12.43,5.71-18.83,7.22-16.71,19.48-23.11,23.24-24.49.69,2.87,2.23,9.75,2.54,18.25.36,8.47-1.81,18.94-6.44,28.03-3.55,7.03-8.56,11.65-13.04,14.69-4.48,3.04-8.57,4.53-11.29,5.33.04,2.75.55,5.53,1.53,8.08-6.59.18-20.22-1.36-33.87-9.8-9.62-5.31-16.13-11.54-20.73-16.95-5.13-5.24-7.92-9.86-9.05-11.87,4.38-1.51,19.12-7.52,37.5.72Z"/>
          <path d="m575.99,130.07c5.67,1.21,10.85,3.43,15.44,6.13,4.67,2.65,7.96,6.19,11.05,9.38-1.04-3.88-1.49-9.21-2.2-14.81-.59-5.66-.53-12.1.83-18.97,1.88-8.91,4.69-15.25,7.98-19.91,3.22-4.62,6.58-7.31,8.15-8.44,3.1,4.6,12.12,24.62,7.17,44.2-4.15,15.22-13.36,21.75-18.04,24.59.77,2.54,2.14,4.92,3.44,7.18-6.01,1.7-19.13,3.55-34.53-.94-5.04-1.42-9.13-3.4-13.15-5.27-4.06-1.85-7.5-3.88-10.37-5.88-2.91-1.97-5.07-4.03-7.01-5.6-1.99-1.54-3.4-2.83-4.22-3.61,1.84-1.28,5.98-4.08,12.04-6.27,6.08-2.18,14.22-3.83,23.42-1.75Z"/>
        </g>
        <path d="m577.22,109.62c3.2-6.16,3.14-11.76,2.67-15.29-.78-8.65-7.04-16.82-15.26-23.81-3.98-3.61-9.29-6.18-14.75-8.31-5.48-2.1-11.32-3.58-17.25-4.24.95,8.86,3.55,17.04,7.64,23.93,3.77,7.19,8.52,13.58,15.09,18.1,8.49,6.82,17.35,8.93,21.85,9.61Z"/>
        <path d="m332.53,493.56c.32-1.67,1.93-2.84,3.6-2.43,58.25,11.39,121-.55,172.33-32.72,50.94-31.5,89.33-82.6,105.34-140.22,8.42-29.77,11.18-59.67,8.19-88.88-2.91-29.96-11.27-58.8-24.85-85.74-7.56-15.15-16.77-29.45-27.33-42.64,1.41-1.51,2.82-3.01,4.24-4.52,11.07,13.71,20.71,28.6,28.59,44.4,13.92,27.61,22.48,57.18,25.47,87.88,3.07,29.97.25,60.64-8.38,91.15-16.41,59.07-55.78,111.48-108.01,143.77-49.47,31-109.34,43.65-165.94,35.38-3.62-.53-7.22-1.15-10.81-1.85-1.67-.32-2.76-1.94-2.43-3.6Z"/>
      </g>
    </g>
  </g>
</svg>